<?xml version="1.0" encoding="utf-8"?>
<!-- Generator: Adobe Illustrator 21.0.0, SVG Export Plug-In . SVG Version: 6.00 Build 0)  -->
<svg version="1.1" id="Capa_1" xmlns="http://www.w3.org/2000/svg" xmlns:xlink="http://www.w3.org/1999/xlink" x="0px" y="0px"
	 viewBox="0 0 512 512" enable-background="new 0 0 512 512" xml:space="preserve">
<path fill="white" d="M178.9,357.1l-64.5,111.7C45.5,422.9,0,344.6,0,255.6C0,119.6,106.1,8.7,240,0.4v128.8c-63,8-112,61.3-112,126.4
	C128,297.1,148.2,333.7,178.9,357.1z M357.5,178.5L469.2,114C426.1,49.2,354.3,5.5,272,0.4v128.8
	C306.9,133.6,337.2,151.8,357.5,178.5z M485.1,141.8L374,206c6.4,15.3,10,32,10,49.6c0,70.6-57.4,128-128,128
	c-17.6,0-34.4-3.6-49.6-10l-64.2,111.1c34.3,17.1,72.8,26.9,113.8,26.9c141.4,0,256-114.6,256-256
	C512,214.7,502.2,176.1,485.1,141.8z"/>
</svg>
